<?xml version="1.0" encoding="utf-8"?>
<!-- Generator: Adobe Illustrator 27.5.0, SVG Export Plug-In . SVG Version: 6.00 Build 0)  -->
<svg version="1.1" id="Capa_1" xmlns="http://www.w3.org/2000/svg" xmlns:xlink="http://www.w3.org/1999/xlink" x="0px" y="0px"
	 viewBox="0 0 453.543 481.89" style="enable-background:new 0 0 453.543 481.89;" xml:space="preserve">
<rect style="fill:#FFFFFF;" width="453.543" height="481.89"/>
<g>
	<g>
		<g>
			<g>
				<rect x="310.525" y="220.659" style="fill:#A6DEF3;" width="31.609" height="154.678"/>
				<rect x="148" y="225.79" style="fill:#A6DEF3;" width="31.609" height="149.547"/>
				<rect x="210.711" y="158.046" style="fill:#A6DEF3;" width="31.611" height="217.291"/>
				<rect x="242.322" y="235.772" style="fill:#A6DEF3;" width="31.611" height="139.564"/>
				<rect x="179.104" y="200.329" style="fill:#A6DEF3;" width="31.607" height="175.008"/>
				<rect x="273.934" y="170.7" style="fill:#A6DEF3;" width="36.592" height="204.637"/>
				<rect x="373.744" y="158.046" style="fill:#A6DEF3;" width="31.611" height="217.291"/>
				<rect x="342.133" y="182.757" style="fill:#A6DEF3;" width="31.611" height="192.58"/>
				<rect x="116.391" y="208.069" style="fill:#A6DEF3;" width="31.609" height="167.268"/>
				<rect x="48.188" y="235.772" style="fill:#A6DEF3;" width="31.611" height="139.564"/>
				<rect x="79.799" y="170.7" style="fill:#A6DEF3;" width="36.592" height="204.637"/>
			</g>
		</g>
		<g>
			<rect x="48.188" y="261.339" style="fill:#7BC6E2;" width="29.078" height="113.998"/>
			<rect x="197.695" y="281.413" style="fill:#7BC6E2;" width="29.076" height="93.924"/>
			<rect x="140.004" y="204.678" style="fill:#7BC6E2;" width="29.078" height="170.659"/>
			<rect x="110.928" y="292.718" style="fill:#7BC6E2;" width="29.076" height="82.619"/>
			<rect x="169.082" y="252.571" style="fill:#7BC6E2;" width="29.078" height="122.766"/>
			<rect x="77.266" y="219.011" style="fill:#7BC6E2;" width="33.662" height="156.326"/>
			<rect x="226.771" y="261.339" style="fill:#7BC6E2;" width="29.076" height="113.998"/>
			<rect x="376.277" y="281.413" style="fill:#7BC6E2;" width="29.078" height="93.924"/>
			<rect x="318.59" y="204.678" style="fill:#7BC6E2;" width="29.078" height="170.659"/>
			<rect x="289.51" y="292.718" style="fill:#7BC6E2;" width="29.08" height="82.619"/>
			<rect x="347.668" y="252.571" style="fill:#7BC6E2;" width="29.074" height="122.766"/>
			<rect x="255.848" y="219.011" style="fill:#7BC6E2;" width="33.662" height="156.326"/>
		</g>
	</g>
	<g>
		<g>
			<g>
				<g>
					<path style="fill:#B25D42;" d="M356.897,223.392c6.219,50.222,3.088,101.226,6.177,151.656c0.248,4.056,6.582,4.08,6.332,0
						c-3.089-50.43,0.042-101.434-6.177-151.656C362.733,219.394,356.396,219.346,356.897,223.392L356.897,223.392z"/>
				</g>
			</g>
			<g>
				<g>
					<path style="fill:#B25D42;" d="M346.035,234.34c4.137,5.909,9.386,10.888,13.627,16.701c2.38,3.263,7.878,0.109,5.467-3.196
						c-4.242-5.816-9.495-10.801-13.625-16.701C349.181,227.826,343.688,230.986,346.035,234.34L346.035,234.34z"/>
				</g>
			</g>
			<g>
				<g>
					<path style="fill:#B25D42;" d="M338.666,251.374c7.242,7.51,14.481,15.025,21.705,22.554c2.832,2.951,7.303-1.532,4.477-4.477
						c-7.223-7.528-14.461-15.044-21.703-22.554C340.305,243.952,335.832,248.434,338.666,251.374L338.666,251.374z"/>
				</g>
			</g>
			<g>
				<g>
					<path style="fill:#B25D42;" d="M330.387,266.348c10.838,10.035,21.039,20.67,30.297,32.188c2.559,3.183,7.01-1.328,4.477-4.478
						c-9.258-11.517-19.458-22.153-30.297-32.188C331.873,259.101,327.384,263.568,330.387,266.348L330.387,266.348z"/>
				</g>
			</g>
			<g>
				<g>
					<path style="fill:#B25D42;" d="M333.754,292.19c9.564,8.749,19.803,16.842,27.777,27.154c2.494,3.227,6.941-1.29,4.477-4.478
						c-7.973-10.313-18.213-18.406-27.777-27.154C335.225,284.962,330.734,289.428,333.754,292.19L333.754,292.19z"/>
				</g>
			</g>
			<g>
				<g>
					<path style="fill:#B25D42;" d="M371.871,229.794c-3.644,6.221-8.465,11.616-12.223,17.757
						c-2.137,3.494,3.342,6.672,5.469,3.196c3.756-6.141,8.578-11.537,12.223-17.757
						C379.408,229.459,373.934,226.274,371.871,229.794L371.871,229.794z"/>
				</g>
			</g>
			<g>
				<g>
					<path style="fill:#B25D42;" d="M381.539,244.855c-6.609,8.073-13.211,16.152-19.799,24.242
						c-2.555,3.137,1.896,7.646,4.477,4.478c6.59-8.09,13.19-16.169,19.799-24.242C388.58,246.201,384.127,241.693,381.539,244.855
						L381.539,244.855z"/>
				</g>
			</g>
			<g>
				<g>
					<path style="fill:#B25D42;" d="M389.926,260.962c-10.166,11.08-19.633,22.734-28.072,35.185
						c-2.299,3.391,3.19,6.555,5.467,3.196c8.141-12.011,17.277-23.218,27.082-33.904
						C397.158,262.438,392.691,257.948,389.926,260.962L389.926,260.962z"/>
				</g>
			</g>
			<g>
				<g>
					<path style="fill:#B25D42;" d="M388.084,287.696c-9.006,9.7-18.71,18.805-25.969,29.964c-2.233,3.435,3.251,6.604,5.469,3.196
						c6.955-10.693,16.348-19.388,24.978-28.683C395.336,289.186,390.868,284.698,388.084,287.696L388.084,287.696z"/>
				</g>
			</g>
		</g>
		<path style="fill:#61BC5B;" d="M323.473,270.963c-2.139,23.67,5.201,46.525,29.315,57.047
			c25.624,11.18,42.981-13.087,47.253-35.793c4.182-22.222-2.971-49.519-12.757-69.041c-8.816-17.592-22.206-29.201-37.782-12.564
			C336.381,224.627,325.533,248.172,323.473,270.963z"/>
		<path style="fill:#52A24E;" d="M382.441,287.865c-2.454,9.426-11.319,16.36-20.805,10.151c-6.309-4.129-7.353-10.069-4.879-15.337
			c-5.148,2.594-11.012,2.821-14.121-3.696c-3.574-7.488,0.334-14.345,6.518-18.333c-6.223-0.431-11.664-3.973-9.904-11.518
			c1.51-6.473,6.488-11.55,12.672-13.373c-9.089-3.658-9.141-14.365-4.531-22.771c-12.158,14.203-21.97,36.418-23.918,57.975
			c-2.139,23.67,5.201,46.525,29.315,57.047c25.624,11.18,42.981-13.087,47.253-35.793c0.493-2.617,0.814-5.308,1.008-8.044
			C397.723,291.223,389.674,290.7,382.441,287.865z"/>
	</g>
	<g>
		<g>
			<g>
				<g>
					<path style="fill:#B25D42;" d="M89.219,222.264c6.222,50.221,3.09,101.225,6.177,151.654c0.248,4.056,6.582,4.08,6.332,0
						c-3.087-50.429,0.045-101.434-6.177-151.654C95.056,218.266,88.717,218.218,89.219,222.264L89.219,222.264z"/>
				</g>
			</g>
			<g>
				<g>
					<path style="fill:#B25D42;" d="M78.359,233.211c4.137,5.909,9.387,10.888,13.627,16.702c2.379,3.264,7.877,0.109,5.467-3.196
						c-4.241-5.817-9.496-10.802-13.625-16.702C81.505,226.697,76.012,229.857,78.359,233.211L78.359,233.211z"/>
				</g>
			</g>
			<g>
				<g>
					<path style="fill:#B25D42;" d="M70.99,250.244c7.243,7.51,14.48,15.026,21.705,22.554c2.832,2.951,7.304-1.533,4.477-4.478
						c-7.225-7.527-14.461-15.044-21.703-22.554C72.629,242.822,68.156,247.305,70.99,250.244L70.99,250.244z"/>
				</g>
			</g>
			<g>
				<g>
					<path style="fill:#B25D42;" d="M62.711,265.219c10.836,10.035,21.037,20.67,30.295,32.186c2.56,3.183,7.01-1.328,4.479-4.478
						c-9.258-11.517-19.459-22.151-30.297-32.186C64.197,257.972,59.709,262.439,62.711,265.219L62.711,265.219z"/>
				</g>
			</g>
			<g>
				<g>
					<path style="fill:#B25D42;" d="M66.078,291.061c9.563,8.748,19.803,16.842,27.775,27.154c2.496,3.227,6.942-1.29,4.479-4.478
						c-7.975-10.313-18.213-18.406-27.777-27.154C67.549,283.833,63.059,288.299,66.078,291.061L66.078,291.061z"/>
				</g>
			</g>
			<g>
				<g>
					<path style="fill:#B25D42;" d="M104.193,228.667c-3.643,6.22-8.463,11.616-12.221,17.755c-2.139,3.493,3.34,6.671,5.467,3.196
						c3.76-6.139,8.578-11.535,12.223-17.755C111.73,228.331,106.256,225.146,104.193,228.667L104.193,228.667z"/>
				</g>
			</g>
			<g>
				<g>
					<path style="fill:#B25D42;" d="M113.861,243.725c-6.607,8.074-13.209,16.153-19.797,24.243
						c-2.555,3.137,1.897,7.646,4.477,4.478c6.588-8.09,13.19-16.169,19.799-24.243
						C120.902,245.071,116.449,240.563,113.861,243.725L113.861,243.725z"/>
				</g>
			</g>
			<g>
				<g>
					<path style="fill:#B25D42;" d="M122.248,259.832c-10.164,11.081-19.632,22.736-28.072,35.188
						c-2.299,3.391,3.19,6.555,5.467,3.196c8.143-12.011,17.279-23.218,27.084-33.906
						C129.48,261.308,125.014,256.817,122.248,259.832L122.248,259.832z"/>
				</g>
			</g>
			<g>
				<g>
					<path style="fill:#B25D42;" d="M120.408,286.567c-9.006,9.7-18.711,18.805-25.969,29.964c-2.234,3.435,3.25,6.604,5.467,3.196
						c6.956-10.693,16.35-19.387,24.981-28.683C127.66,288.057,123.192,283.568,120.408,286.567L120.408,286.567z"/>
				</g>
			</g>
		</g>
		<path style="fill:#B0D071;" d="M153.273,289.76c0-7.046-4.939-12.932-11.543-14.407c2.733-2.678,4.431-6.408,4.431-10.539
			c0-7.189-5.139-13.171-11.94-14.491c0.355-1.275,0.561-2.61,0.561-3.999c0-7.395-5.441-13.504-12.536-14.584
			c0.94-1.944,1.486-4.116,1.486-6.423c0-7.152-5.086-13.115-11.837-14.477c0.325-1.379,0.512-2.811,0.512-4.288
			c0-10.362-8.4-18.765-18.765-18.765c-10.364,0-18.764,8.402-18.764,18.765c0,3.796,1.136,7.323,3.073,10.276
			c-7.728,0.476-13.851,6.879-13.851,14.725c0,3.183,1.016,6.123,2.729,8.533c-0.888-0.164-1.796-0.262-2.729-0.262
			c-8.157,0-14.77,6.614-14.77,14.77c0,4.122,1.689,7.845,4.412,10.524c-6.721,1.385-11.773,7.334-11.773,14.465
			c0,1.723,0.31,3.371,0.853,4.907c-6.494,1.554-11.327,7.382-11.327,14.351c0,8.157,6.614,14.77,14.772,14.77
			c0.23,0,0.457-0.024,0.685-0.034c1.889,5.982,7.481,10.319,14.083,10.319c4.564,0,8.638-2.069,11.349-5.319
			c2.042,5.712,7.483,9.807,13.899,9.807c4.557,0,8.631-2.066,11.339-5.312c2.707,3.245,6.782,5.312,11.339,5.312
			c4.491,0,8.505-2.012,11.215-5.173c2.709,3.161,6.723,5.173,11.215,5.173c8.159,0,14.771-6.614,14.771-14.772
			c0-3.695-1.366-7.065-3.61-9.654C148.738,302.193,153.273,296.513,153.273,289.76z"/>
		<path style="fill:#8CC46A;" d="M153.273,289.76c0-7.046-4.939-12.932-11.543-14.407c2.733-2.678,4.431-6.408,4.431-10.539
			c0-1.107-0.134-2.179-0.366-3.214c-4.262,7.948-14.114,13.825-20.446,6.313c-0.241,6.954-5.78,12.48-12.709,13.842
			c-3.75,0.739-7.741,0.271-10.437-1.791c0.164,2.154-0.246,4.284-1.688,6.099c-2.297,2.896-6.138,4.136-9.73,4.248
			c-4.344,0.137-11.475-2.047-10.762-6.372c-1.679,0.992-3.602,1.416-5.429,0.275c-2.751-1.719-3.954-5.051-4.447-8.108
			c-0.814-5.079,0.925-10.127,4.942-11.665c-1.966-0.873-3.654-2.229-4.58-4.318c-1.555-3.508-1.225-7.559,0.22-11.058
			c2.378-5.771,7.587-11.234,13.772-11.124c-7.058-6.355-6.15-21.355,2.203-22.879c-3.745-2.76-5.154-7.707-3.77-12.887
			c1.877-7.004,7.342-13.197,14.891-13.722c0.579-0.04,0.766,0.532,0.586,0.95c0.226-0.264,0.427-0.538,0.614-0.821
			c-1.705-0.512-3.513-0.794-5.384-0.794c-10.364,0-18.764,8.402-18.764,18.765c0,3.796,1.136,7.323,3.073,10.276
			c-7.728,0.476-13.851,6.879-13.851,14.725c0,3.183,1.016,6.123,2.729,8.533c-0.888-0.164-1.796-0.262-2.729-0.262
			c-8.157,0-14.77,6.614-14.77,14.77c0,4.122,1.689,7.845,4.412,10.524c-6.721,1.385-11.773,7.334-11.773,14.465
			c0,1.723,0.31,3.371,0.853,4.907c-6.494,1.554-11.327,7.382-11.327,14.351c0,8.157,6.614,14.77,14.772,14.77
			c0.23,0,0.457-0.024,0.685-0.034c1.889,5.982,7.481,10.319,14.083,10.319c4.564,0,8.638-2.069,11.349-5.319
			c2.042,5.712,7.483,9.807,13.899,9.807c4.557,0,8.631-2.066,11.339-5.312c2.707,3.245,6.782,5.312,11.339,5.312
			c4.491,0,8.505-2.012,11.215-5.173c2.709,3.161,6.723,5.173,11.215,5.173c8.159,0,14.771-6.614,14.771-14.772
			c0-3.695-1.366-7.065-3.61-9.654C148.738,302.193,153.273,296.513,153.273,289.76z"/>
	</g>
	<path style="fill:#B9DB9C;" d="M431.045,438.619c-0.529,2.078-1.294,4.056-2.359,5.857c-5.42,9.166-17.805,10.127-27.426,9.246
		H300.935H148c-19.891,0-15.805-16.949-15.805-16.949c0.305-9.574,20.998-8.197,20.998-8.197c17.303,0,15.695-11.59,15.695-11.59
		c-0.002-9.272-9.221-10.776-9.221-10.776H47.177c-27.022-4.418-27.617-28.166-8.325-38.02c15.766-8.053,46.768-6.773,65.571-7.116
		c0.005,0,170.014-3.094,170.014-3.094c27.147-0.003,54.582,0.822,81.703,1.336c53.24,1.008,53.24,1.008,53.751,12.527
		c0.666,15.023-42.29,11.518-38.611,23.755c1.511,5.026,27.893,5.767,32.723,5.487c14.753-0.855,24.927,3.794,27.203,18.52
		C432.115,425.495,432.606,432.491,431.045,438.619z"/>
	<g>
		<g>
			<g>
				<rect x="170.604" y="314.104" style="fill:#BF7A5B;" width="6.362" height="57.09"/>
				<rect x="255.703" y="314.104" style="fill:#BF7A5B;" width="6.364" height="57.09"/>
			</g>
			<rect x="145.551" y="319.673" style="fill:#D19468;" width="141.569" height="13.52"/>
			<rect x="145.551" y="341.146" style="fill:#D19468;" width="141.569" height="13.521"/>
			<polygon style="fill:#D19468;" points="294.543,380.65 138.127,380.65 146.432,371.194 286.238,371.194 			"/>
			<g>
				<rect x="156.885" y="380.65" style="fill:#BF7A5B;" width="5.566" height="29.429"/>
				<rect x="270.219" y="380.65" style="fill:#BF7A5B;" width="5.567" height="29.429"/>
			</g>
			<rect x="138.127" y="380.65" style="fill:#BF7A5B;" width="156.617" height="3.638"/>
		</g>
	</g>
	<g>
		<polygon style="fill:#2C6984;" points="335.141,102.168 335.141,98.775 335.07,98.775 331.107,98.775 331.035,98.775 
			331.035,102.168 328.543,363.879 331.035,363.879 335.141,363.879 337.33,363.879 		"/>
		<polygon style="fill:#2C6984;" points="346.963,98.775 318.91,98.775 312.81,46.83 353.063,46.83 		"/>
		<polygon style="fill:#BDE6F5;" points="343.877,96.637 321.998,96.637 317.24,52.658 348.633,52.658 		"/>
		<rect x="318.678" y="98.775" style="fill:#2D4765;" width="28.518" height="7.809"/>
		<rect x="322.748" y="106.584" style="fill:#333967;" width="20.377" height="3.904"/>
		<rect x="331.547" y="49.699" style="fill:#2C6984;" width="2.779" height="46.938"/>
		<polygon style="fill:#2C3153;" points="312.81,46.83 332.938,18.498 353.063,46.83 		"/>
		<polygon style="fill:#212443;" points="332.67,18.873 312.81,46.83 332.67,46.83 		"/>
		<polygon style="fill:#212443;" points="346.746,410.078 319.129,410.078 322.178,363.879 343.695,363.879 		"/>
	</g>
</g>
</svg>
