<?xml version="1.0" encoding="utf-8"?>
<!-- Generator: Adobe Illustrator 27.5.0, SVG Export Plug-In . SVG Version: 6.00 Build 0)  -->
<svg version="1.1" xmlns="http://www.w3.org/2000/svg" xmlns:xlink="http://www.w3.org/1999/xlink" x="0px" y="0px"
	 viewBox="0 0 600 500" style="enable-background:new 0 0 600 500;" xml:space="preserve">
<g id="BACKGROUND">
	<rect style="fill:#E8F0F0;" width="600" height="500"/>
</g>
<g id="OBJECTS">
	<g>
		<g>
			<path style="fill:#F5FCFC;" d="M91.119,434.946c21.229,0,42.458,0,63.686,0c63.698,0,127.395,0,191.093,0
				c53.815,0,107.63,0,161.446,0c2.436,0,25.346,2.124,26.627,0c6.043-10.018,10.681-21.098,12.685-30.067
				c2.456-10.993,1.401-23.178-4.323-32.723c-0.987-1.646-2.112-3.213-3.383-4.682c-9.079-10.5-23.528-14.258-35.243-21.703
				c-18.299-11.629-28.758-31.277-40.22-48.961c-13.28-20.489-31.997-31.32-55.474-38.234
				c-60.045-17.684-138.96-7.086-190.745,28.384c-18.714,12.818-35.159,29.48-56.123,38.142
				c-17.956,7.419-37.826,8.369-56.788,12.598c-18.963,4.229-38.621,13.097-47.534,30.36c-7.191,13.927-5.456,30.322,0.435,44.367
				C64.829,430.48,71.841,434.946,91.119,434.946z"/>
			<path style="fill:#F5FCFC;" d="M118.618,299.217c-0.181,4.618,3.138,8.847,7.271,10.914c4.133,2.067,8.932,2.332,13.547,2.095
				c5.082-0.261,10.135-1.081,15.039-2.443c9.766-2.711,20.222-8.946,20.484-20.311c0.169-7.31-4.418-12.202-11.248-14.096
				C150.018,271.579,119.267,282.684,118.618,299.217z"/>
			<path style="fill:#F5FCFC;" d="M508.294,335.622c2.958,1.815,6.203,3.302,9.656,3.643c3.453,0.341,7.151-0.596,9.596-3.058
				c3.43-3.453,3.658-9.156,1.8-13.655c-1.859-4.498-5.41-8.052-8.952-11.392c-5.801-5.47-27.492-21.42-31.917-6.1
				C485.358,315.857,500.384,330.768,508.294,335.622z"/>
		</g>
		<g>
			<g>
				<path style="fill:#7AA78A;" d="M518.499,370.636c0,0-27.505,18.996-19.194,64.31h26.12
					C525.424,434.946,534.131,399.921,518.499,370.636z"/>
				<path style="fill:#589187;" d="M509.28,429.157c-0.106,0-0.215-0.018-0.322-0.056c-0.487-0.177-0.739-0.717-0.562-1.206
					c6.351-17.452,6.915-42.321,6.92-42.569c0.01-0.519,0.482-0.963,0.958-0.921c0.519,0.011,0.931,0.439,0.922,0.958
					c-0.005,0.252-0.575,25.426-7.032,43.176C510.024,428.92,509.664,429.157,509.28,429.157z"/>
				<path style="fill:#95BC8A;" d="M455.247,340.756c0,0-1.724,51.513,37.072,94.189h20.045
					C512.365,434.946,496.63,357.999,455.247,340.756z"/>
				<path style="fill:#6D9D8A;" d="M499.371,429.157c-0.388,0-0.751-0.242-0.887-0.63c-11.179-31.982-38.536-74.698-38.812-75.126
					c-0.28-0.436-0.154-1.018,0.283-1.298c0.436-0.283,1.017-0.155,1.298,0.283c0.277,0.43,27.753,43.333,39.005,75.522
					c0.171,0.49-0.087,1.026-0.578,1.197C499.579,429.14,499.473,429.157,499.371,429.157z"/>
			</g>
			<path style="fill:#7AA78A;" d="M77.874,337.986c-4.353,46.699,12.268,96.96,12.268,96.96h26.699
				C117.816,380.727,77.874,337.986,77.874,337.986z"/>
			<path style="fill:#589187;" d="M104.671,427.636c-0.441,0-0.835-0.312-0.922-0.761c-6.242-32.318-20.908-69.044-21.056-69.411
				c-0.193-0.481,0.04-1.029,0.522-1.223c0.477-0.19,1.029,0.04,1.222,0.523c0.148,0.368,14.881,37.255,21.157,69.753
				c0.099,0.51-0.235,1.004-0.745,1.102C104.79,427.631,104.731,427.636,104.671,427.636z"/>
			<path style="fill:#95BC8A;" d="M98.604,434.946h14.334c0,0,25.13-18.753,31.211-56.065
				C144.149,378.88,106.878,382.554,98.604,434.946z"/>
			<path style="fill:#6D9D8A;" d="M107.311,429.684c-0.141,0-0.283-0.032-0.417-0.098c-0.465-0.231-0.655-0.796-0.424-1.261
				c10.502-21.138,29.282-39.642,29.47-39.827c0.371-0.361,0.966-0.356,1.329,0.015c0.363,0.371,0.357,0.966-0.015,1.329
				c-0.186,0.182-18.743,18.472-29.101,39.32C107.989,429.493,107.656,429.684,107.311,429.684z"/>
		</g>
		<g>
			<g>
				<path style="fill:#FF9692;" d="M472.789,414.696c0,0-0.066,14.445-0.462,14.445c-0.396,0-6.728-2.375-6.728-2.375v-13.06
					L472.789,414.696z"/>
				<path style="fill:#FF9692;" d="M429.567,406.984c0,0-4.553,13.709-4.929,13.586c-0.376-0.123-5.656-4.348-5.656-4.348
					l4.06-12.413L429.567,406.984z"/>
				<path style="fill:#87C2EC;" d="M397.82,417.906l27.145,8.878c0,0,1.47-1.948,1.148-3.511c-0.322-1.563,0.709-3.654,0.309-4.34
					c-0.4-0.686-0.216-1.25-1.884-1.241c-1.669,0.01-1.788,0.162-3.196-1.262c-1.408-1.424-1.743-1.672-3.034-1.331
					c-1.291,0.341-2.929,2.165-7.667,1.587c-4.738-0.578-9.832-1.342-10.894-1.065C398.685,415.898,397.82,417.906,397.82,417.906z"
					/>
				<path style="fill:#699EDC;" d="M397.82,417.906l27.145,8.878c0,0,0.629-0.846,0.973-1.868l-26.947-8.813
					C398.304,416.785,397.82,417.906,397.82,417.906z"/>
				<path style="fill:#87C2EC;" d="M446.01,434.946h28.56c0,0,0.792-2.309,0-3.694s-0.462-3.694-1.055-4.221
					c-0.594-0.528-0.594-1.121-2.177-0.594c-1.583,0.528-1.649,0.71-3.43-0.206c-1.781-0.916-2.177-1.048-3.298-0.322
					c-1.121,0.726-2.111,2.968-6.794,3.892c-4.683,0.923-9.762,1.781-10.685,2.374C446.208,432.769,446.01,434.946,446.01,434.946z"
					/>
				<path style="fill:#699EDC;" d="M446.01,434.946h28.56c0,0,0.335-1,0.344-2.078h-28.352
					C446.121,433.73,446.01,434.946,446.01,434.946z"/>
			</g>
			<g>
				<path style="fill:#FF9692;" d="M391.726,224.471c-1.649-2.638-2.968-3.76-3.397-3.628c-0.429,0.132-0.726,0.363-0.726,0.363
					s-5.903-4.65-6.794-4.815c-0.89-0.165-1.121,0.429-1.088,0.726s4.551,4.452,4.551,4.452s-1.228,0.544-0.998,1.402
					c-0.577,0.256-0.813,0.687-0.67,1.303c0.038,0.163,0.105,0.334,0.05,0.493c-0.033,0.096-0.107,0.171-0.168,0.251
					c-0.32,0.423-0.286,1.035-0.048,1.508c0.239,0.473,0.648,0.836,1.061,1.169c0.795,0.642,1.653,1.229,2.62,1.559
					c0.759,0.259,1.564,0.352,2.342,0.549c0.951,0.24,1.858,0.634,2.728,1.087c0.47,0.245,0.964,0.516,1.493,0.486l1.614-4.202
					C394.297,227.174,393.375,227.109,391.726,224.471z"/>
				<path style="fill:#C47486;" d="M386.962,226.761c0.225-0.122,0.36-0.387,0.345-0.678c-0.007-0.122-0.035-0.245-0.081-0.363
					c0.248,0.022,0.494-0.011,0.682-0.185c0.184-0.17,0.261-0.452,0.201-0.736c-0.051-0.242-0.188-0.449-0.316-0.62
					c-0.672-0.898-1.64-1.544-2.493-2.114l-0.931-0.619l-0.374-0.134c0.169,0.156,0.277,0.256,0.277,0.256s-0.08,0.036-0.194,0.102
					l0.151,0.054l0.897,0.6c0.832,0.557,1.776,1.187,2.416,2.043c0.106,0.143,0.221,0.313,0.261,0.498
					c0.037,0.173-0.006,0.345-0.108,0.439c-0.157,0.146-0.427,0.116-0.701,0.062c-0.167-0.111-2.563-1.694-3.658-2.539l-0.076-0.033
					c0.003,0.058-0.003,0.114,0.013,0.176c-0.062,0.028-0.104,0.065-0.159,0.097l0.062,0.027c1.068,0.831,3.459,2.411,3.642,2.532
					c0.103,0.148,0.164,0.313,0.174,0.475c0.007,0.138-0.045,0.311-0.181,0.383c-0.114,0.061-0.272,0.045-0.409,0.026
					c-0.148-0.024-0.319-0.059-0.459-0.137l-0.201-0.113l-0.002,0.012c-0.574-0.285-2.35-1.176-2.989-1.628l-0.091-0.075
					c0.008,0.066,0.014,0.132-0.008,0.196c-0.017,0.05-0.056,0.088-0.087,0.13c0.703,0.496,2.607,1.446,3.108,1.693
					c-0.093,0.255-0.38,0.451-0.66,0.436c-0.184-0.017-0.367-0.119-0.53-0.208l-0.863-0.474c-0.077-0.043-0.172-0.015-0.213,0.061
					c-0.042,0.076-0.015,0.171,0.061,0.213l0.864,0.474c0.179,0.099,0.403,0.223,0.651,0.245c0.027,0.004,0.055,0.005,0.082,0.005
					c0.39,0,0.764-0.261,0.904-0.613c0.13,0.047,0.262,0.072,0.382,0.09C386.544,226.85,386.767,226.867,386.962,226.761z"/>
			</g>
			<g>
				<path style="fill:#544161;" d="M477.736,281.393c0,0,2.243,8.113,0.923,24.537c-1.319,16.424-2.902,44.522-3.496,64.706
					c-0.594,20.183-1.583,47.095-1.583,47.095s-3.166,1.979-9.498-1.385c0,0,0.594-54.614,0-65.497
					c-0.594-10.883-2.968-41.158-2.968-41.158s-3.34,8.674-9.996,22.966c-3.596,7.721-7.868,41.938-21.664,78.149
					c0,0-5.145-0.198-9.102-3.562c0,0,9.696-41.752,13.456-60.155c3.76-18.402,6.53-37.794,10.29-47.688
					c3.76-9.894,5.616-18.996,5.616-18.996L477.736,281.393z"/>
				<path style="fill:#3E3047;" d="M461.378,291.287c0,0-7.293,34.826-7.529,35.412c4.832-10.699,7.265-17.01,7.265-17.01
					s0.017,0.219,0.046,0.593l0.217-1.186C461.378,309.096,462.4,299.039,461.378,291.287z"/>
			</g>
			<path style="fill:#544161;" d="M455.631,212.274c0.208-1.7,0.701-3.404,1.72-4.781c1.019-1.377,2.621-2.387,4.334-2.407
				c0.516-0.006,1.029,0.076,1.545,0.094c1.763,0.062,3.501-0.616,5.26-0.476c1.977,0.157,3.828,1.428,4.685,3.217
				c0.315,0.658,0.505,1.377,0.893,1.994c0.535,0.851,1.398,1.433,2.084,2.167c1.297,1.388,1.924,3.286,2.183,5.169
				c0.258,1.883,0.185,3.793,0.28,5.691c0.03,0.603,0.079,1.214,0.286,1.781c0.27,0.742,0.79,1.362,1.174,2.052
				c1.189,2.136,0.971,4.846-0.057,7.064c-0.096,0.207-0.209,0.423-0.409,0.532c-0.153,0.084-0.334,0.093-0.509,0.099
				c-2.119,0.071-4.245-0.092-6.328-0.484c-1.289-0.243-2.577-0.579-3.727-1.21c-1.135-0.622-2.1-1.511-2.999-2.443
				c-1.329-1.378-2.554-2.888-3.365-4.623c-0.675-1.443-1.049-3.012-1.716-4.46c-0.445-0.967-1.051-1.917-1.886-2.594
				c-0.63-0.511-1.358-0.53-2.01-0.934C455.45,216.718,455.431,213.913,455.631,212.274z"/>
			<g>
				<path style="fill:#87C2EC;" d="M468.212,228.758c0,0,11.371,4.203,13.614,5.729s5.013,22.369,6.728,25.271
					c1.715,2.902,23.75,26.837,26.124,28.684l-5.145,3.694c0,0-16.626-14.437-21.507-18.922c-4.881-4.485-9.762-11.213-9.762-11.213
					s0.396,7.391,0.923,11.61c0.528,4.22,1.693,8.837,1.693,8.837s-6.046,1.847-14.357,1.451c-8.311-0.396-19.8-1.451-19.8-1.451
					s2.167-10.743,1.771-15.406c-0.396-4.663-1.231-14.803-0.572-17.441c0,0-4.881,6.735-8.179,6.995
					c-3.298,0.26-43.401-20.846-48.018-24.54c0,0,1.715-3.166,2.77-5.277c0,0,12.532,6.464,18.073,9.102
					c5.541,2.638,23.877,9.102,24.405,9.366c0.528,0.264,8.311-11.873,11.213-13.06c2.902-1.187,10.685-3.1,10.685-3.1
					L468.212,228.758z"/>
				<path style="fill:#64A1CC;" d="M480.638,265.089c-0.217-0.273-2.374-3.088-2.374-3.088s0-7.651-1.583-17.281
					c0,0,2.658,6.427,3.166,15.434L480.638,265.089z"/>
				<path style="fill:#64A1CC;" d="M447.923,249.601c-0.275,1.101-0.288,3.512-0.184,6.282l2.558-11.163L447.923,249.601z"/>
			</g>
			<path style="fill:#FF9692;" d="M514.145,288.825c0,0,0.829,0.904,2.165,1.349c1.336,0.445,2.968,1.187,3.018,1.435
				c0.049,0.247-0.544,0.709-1.682,0.528c0,0,6.579,4.32,7.124,4.963s0.049,1.039-0.989,0.594c-1.039-0.445-5.244-2.82-5.244-2.82
				s5.64,4.601,5.936,5.095c0.297,0.495,0.049,1.088-0.94,0.495c-0.989-0.594-5.392-3.661-5.392-3.661s3.216,3.514,3.166,3.909
				c-0.049,0.395-0.693,0.397-1.187,0c-0.495-0.397-4.254-3.81-4.254-3.81s1.583,2.177,1.435,2.474
				c-0.148,0.297-0.89,0.049-1.533-0.544c-0.643-0.594-1.484-1.484-2.177-2.82c-0.693-1.336-0.346-1.187-1.435-2.276
				c-1.088-1.088-1.835-2.164-1.835-2.164L514.145,288.825z"/>
			<path style="fill:#DE8788;" d="M467.776,224.339c0,0-0.118,3.957,0.436,4.419c0.554,0.462-1.557,5.923-3.866,7.084
				c0,0-4.09-1.081-5.475-6.754c0,0,0.923-0.264,0.989-0.792c0.066-0.528,0-4.683,0-4.683L467.776,224.339z"/>
			<path style="fill:#FF9692;" d="M457.223,216.753c0,0,0.857,9.894,5.606,10.751c4.749,0.857,7.453-7.124,7.519-7.387
				c0.066-0.264,1.715-0.264,1.715-2.111c0-1.847-0.989-2.968-1.451-2.836s-0.528,3.166-1.187,3.1
				c-0.66-0.066-0.923-3.826-1.319-3.892c-0.396-0.066-0.989,1.385-2.968,0.857c-1.979-0.528-1.979-1.451-3.43-1.517
				c-1.451-0.066-1.979,0.264-2.836-0.857c-0.023,0.779-0.314,1.49-0.535,2.237S458.002,216.753,457.223,216.753z"/>
		</g>
		<g>
			<polygon style="fill:#6E7087;" points="348.708,301.009 446.723,301.009 423.506,235.842 325.491,235.842 			"/>
			<polygon style="fill:#9BA0BF;" points="346.657,301.009 443.25,301.009 420.94,238.388 324.346,238.388 			"/>
			<polygon style="fill:#A8ADCF;" points="363.614,290.628 416.107,290.628 403.983,256.596 351.489,256.596 			"/>
			<polygon style="fill:#8B8FAB;" points="324.346,238.388 325.491,235.842 423.506,235.842 420.94,238.388 			"/>
			<polygon style="fill:#666F9B;" points="376.081,267.482 363.9,330.467 363.9,429.026 376.081,429.026 376.081,330.467 
				388.262,267.482 			"/>
			<polygon style="fill:#545C80;" points="388.262,267.482 376.081,330.467 376.081,429.026 380.039,429.026 380.039,336.7 
				393.111,284.525 			"/>
			<rect x="346.805" y="428.218" style="fill:#9BA0BF;" width="66.889" height="6.728"/>
			<rect x="387.008" y="428.218" style="fill:#878BA6;" width="26.686" height="6.728"/>
		</g>
		<g>
			<g>
				<circle style="fill:#666F9B;" cx="302.174" cy="230.467" r="74.671"/>
				
					<ellipse transform="matrix(0.1636 -0.9865 0.9865 0.1636 25.3779 490.8677)" style="fill:#868CAF;" cx="302.174" cy="230.467" rx="67.031" ry="67.031"/>
				
					<ellipse transform="matrix(0.1633 -0.9866 0.9866 0.1633 25.4547 490.9494)" style="fill:#9BA0BF;" cx="302.174" cy="230.467" rx="61.417" ry="61.417"/>
			</g>
			<g>
				<path style="fill:#B4B7D1;" d="M344.527,204.686c0,2.473-2.005,4.479-4.479,4.479c-2.474,0-4.479-2.005-4.479-4.479
					c0-2.474,2.005-4.479,4.479-4.479C342.521,200.207,344.527,202.212,344.527,204.686z"/>
				<circle style="fill:#B4B7D1;" cx="267.107" cy="260.939" r="1.943"/>
				<path style="fill:#B4B7D1;" d="M355.413,234.789c0,1.073-0.87,1.943-1.943,1.943c-1.073,0-1.943-0.87-1.943-1.943
					c0-1.073,0.87-1.943,1.943-1.943C354.543,232.846,355.413,233.716,355.413,234.789z"/>
				<path style="fill:#B4B7D1;" d="M323.02,181.855c0,1.073-0.87,1.943-1.943,1.943c-1.073,0-1.943-0.87-1.943-1.943
					s0.87-1.943,1.943-1.943C322.15,179.912,323.02,180.782,323.02,181.855z"/>
				<path style="fill:#B4B7D1;" d="M260.119,207.977c0,1.409-1.142,2.552-2.552,2.552c-1.409,0-2.552-1.142-2.552-2.552
					c0-1.409,1.142-2.551,2.552-2.551C258.976,205.425,260.119,206.567,260.119,207.977z"/>
				<circle style="fill:#B4B7D1;" cx="325.491" cy="273.612" r="1.943"/>
				<path style="fill:#B4B7D1;" d="M349.934,253.855c0,2.73-2.213,4.943-4.943,4.943c-2.73,0-4.943-2.213-4.943-4.943
					s2.213-4.943,4.943-4.943C347.721,248.912,349.934,251.125,349.934,253.855z"/>
				<path style="fill:#B4B7D1;" d="M284.702,275.823c0,2.73-2.213,4.943-4.943,4.943c-2.73,0-4.943-2.213-4.943-4.943
					c0-2.73,2.213-4.943,4.943-4.943C282.489,270.879,284.702,273.092,284.702,275.823z"/>
				<path style="fill:#B4B7D1;" d="M277.186,191.92c0,2.73-2.213,4.943-4.943,4.943c-2.73,0-4.943-2.213-4.943-4.943
					c0-2.73,2.213-4.943,4.943-4.943C274.972,186.977,277.186,189.19,277.186,191.92z"/>
			</g>
			<g>
				<polygon style="fill:#D2D6E6;" points="302.178,176.123 302.178,254.86 336.09,231.525 				"/>
				<polygon style="fill:#CCCEDE;" points="302.178,218.415 302.178,254.86 336.09,231.525 				"/>
				<polygon style="fill:#E1E6F0;" points="302.178,176.123 302.178,254.86 268.266,231.525 				"/>
				<polygon style="fill:#D2D6E6;" points="302.178,218.415 302.178,254.86 268.266,231.525 				"/>
				<g>
					<polygon style="fill:#D2D6E6;" points="302.178,285.038 337.37,236.839 302.178,261.848 					"/>
					<polygon style="fill:#E1E6F0;" points="302.298,285.038 267.107,236.839 302.298,261.848 					"/>
				</g>
			</g>
		</g>
		<g>
			<polygon style="fill:#444B69;" points="243.846,287.923 143.324,287.923 166.542,222.756 267.063,222.756 			"/>
			<polygon style="fill:#555F85;" points="185.122,280.766 154.253,280.766 173.029,228.066 203.897,228.066 			"/>
			<polygon style="fill:#65719E;" points="162.531,270.114 160.537,275.549 182.87,275.549 184.865,270.114 			"/>
			<polygon style="fill:#65719E;" points="164.526,264.352 163.361,267.562 185.694,267.562 186.859,264.352 			"/>
			<polygon style="fill:#65719E;" points="190.804,252.838 197.034,235.352 174.701,235.352 168.471,252.838 			"/>
			<polygon style="fill:#747DA1;" points="242.131,271.255 227.2,271.255 232.118,257.45 247.049,257.45 			"/>
			<rect x="143.324" y="287.923" style="fill:#868CAF;" width="100.455" height="5.541"/>
			<polygon style="fill:#777C9C;" points="267.063,222.756 243.78,287.923 243.78,293.814 268.17,225.549 			"/>
			<polygon style="fill:#87C2EC;" points="228.139,235.684 229.997,230.467 209.686,230.467 207.828,235.684 			"/>
			<polygon style="fill:#FFD664;" points="224.841,245.05 226.699,239.834 206.389,239.834 204.53,245.05 			"/>
			<polygon style="fill:#87C2EC;" points="221.543,254.416 223.401,249.2 203.091,249.2 201.232,254.416 			"/>
			<polygon style="fill:#FF5774;" points="240.77,280.766 242.628,275.549 195.411,275.549 193.552,280.766 			"/>
			<polygon style="fill:#E4E6F5;" points="201.683,270.114 204.402,270.114 206.32,263.722 209.382,263.722 206.612,257.331 
				200.554,263.722 203.601,263.722 			"/>
			<polygon style="fill:#95DD8A;" points="221.825,257.961 219.106,257.961 217.467,264.353 214.405,264.353 217.175,270.744 
				223.234,264.353 220.186,264.353 			"/>
			<rect x="189.1" y="293.464" style="fill:#666F9B;" width="15.868" height="135.117"/>
			<polygon style="fill:#545C80;" points="204.968,428.581 214.405,428.581 209.382,293.464 204.968,293.464 			"/>
			<rect x="170.236" y="428.218" style="fill:#878BA6;" width="66.889" height="6.728"/>
			<rect x="170.236" y="428.218" style="fill:#9BA0BF;" width="49.523" height="6.728"/>
		</g>
		<g>
			<polygon style="fill:#FF9692;" points="121.261,411.003 120.569,429.306 112.456,429.306 112.95,407.935 			"/>
			<polygon style="fill:#FF9692;" points="169.025,404.84 174.076,422.446 166.368,424.977 160.172,404.518 			"/>
			<path style="fill:#87C2EC;" d="M165.505,431.196l32.118-10.544c0,0,0.477-3.231-1.074-3.271
				c-1.551-0.04-14.532,3.233-19.047,2.19c-4.515-1.043-4.875-1.804-7.426,0.461c-2.551,2.265-4.305,0.266-5.556,1.14
				c-1.25,0.875-0.826,1.833-0.469,3.254C164.407,425.846,163.839,427.46,165.505,431.196z"/>
			<path style="fill:#699EDC;" d="M164.767,429.217c0.18,0.592,0.405,1.233,0.737,1.979l32.118-10.544c0,0,0.183-1.25-0.051-2.205
				L164.767,429.217z"/>
			<path style="fill:#544161;" d="M110.477,287.923c0,0-1.979,5.541,0,24.537c1.979,18.996,3.76,27.109,2.968,34.035
				c-0.791,6.926-2.666,56.461-1.828,67.74c0,0,4.202,2.968,11.128,0c0,0,0.989-30.737,3.957-49.139
				c2.968-18.402,3.562-29.088,3.166-34.43c-0.396-5.343-0.792-12.664-0.792-12.664s9.3,15.434,11.873,22.162
				c2.572,6.728,20.579,72.819,20.579,72.819s5.541,1.187,9.696-2.572c0,0-13.851-70.84-16.028-76.974
				c-2.177-6.134-18.402-49.073-18.402-49.073L110.477,287.923z"/>
			<path style="fill:#FF9692;" d="M101.915,261.803c0,0,0.944,12.565,1.538,13.95c0.594,1.385,4.254,3.76,4.254,3.76
				s1.484-18.106,1.088-18.205c-0.396-0.099-5.541-1.286-5.541-1.286L101.915,261.803z"/>
			<path style="fill:#FF9692;" d="M144.177,252.839l5.084,8.233c0,0,4.947-4.907,14.94-11.338s11.477-8.014,11.971-9.399
				c0.495-1.385,1.781-2.671,2.276-2.869c0.495-0.198,1.286,0,1.286,0s5.013-5.837,5.837-5.87s0.792,0.561,0.758,0.857
				c-0.033,0.297-4.188,4.881-4.188,4.881s1.121-0.198,1.253,0.231c0.132,0.429,0.033,0.693,0.495,0.825
				c0.462,0.132,1.055,0.462,0.891,0.89c-0.165,0.429,0.429,0.594,0.594,1.088c0.165,0.495-0.165,1.319-1.649,2.342
				c-1.484,1.022-4.617,2.836-7.321,5.54s-26.12,22.624-28.362,23.415c-2.243,0.792-4.947-1.187-5.739-2.243
				c-0.791-1.055-6.926-13.192-6.926-13.192L144.177,252.839z"/>
			<path style="fill:#DE8788;" d="M144.177,252.838l-8.801,3.391c0,0,1.455,2.879,3.038,5.952c3.311-2.223,5.869-5.866,6.905-7.493
				L144.177,252.838z"/>
			<path style="fill:#87C2EC;" d="M146.787,251.019c-3.166-2.671-6.728-8.608-7.618-10.191c-0.89-1.583-2.374-3.166-5.41-4.551
				c-3.036-1.385-7.501-1.979-7.501-1.979h-8.36c0,0-7.915,0-13.654,4.452c-3.182,2.469-4.269,22.593-4.269,22.593
				c2.473,0.989,7.237,0.46,7.237,0.46s-0.363,10.751-0.099,18.402c0.153,4.422-0.264,9.366-0.264,9.366s2.737,0.725,6.695,0.33
				c3.958-0.396,9.894,0.495,17.413-0.792c7.519-1.286,8.805-4.65,8.805-4.65s-2.473-9.696-2.473-15.533s-0.561-9.762-0.561-9.762
				C143.555,256.988,146.787,251.019,146.787,251.019z"/>
			<path style="fill:#FF9692;" d="M133.029,213.879c0.227,1.242,0.268,2.517,0.123,3.771c-0.122,1.049-0.373,2.118-0.14,3.148
				c0.105,0.465,0.306,0.906,0.383,1.376c0.077,0.47,0.001,1.007-0.358,1.321c-0.205,0.179-0.481,0.266-0.676,0.457
				c-0.324,0.317-0.341,0.823-0.339,1.276c0.004,0.804,0.001,1.623-0.248,2.387c-0.249,0.764-0.788,1.478-1.551,1.73
				c-0.334,0.11-0.691,0.128-1.042,0.154c-0.623,0.047-1.243,0.125-1.858,0.235c-0.351,0.063-0.712,0.141-1.001,0.35
				c-0.289,0.209-0.487,0.584-0.386,0.926l0.323,3.288c0,0-1.781,2.127-8.805,0.594c0,0,0.346-5.936-0.396-7.42
				c-0.742-1.484,3.215-12.565,3.215-12.565l8.954-3.809L133.029,213.879z"/>
			<path style="fill:#544161;" d="M120.369,205.52c2.153,0.175,3.168-1.991,6.207-0.741c0.708,0.291,1.224,0.912,1.829,1.381
				c1.231,0.955,2.734,1.561,3.818,2.68c1.381,1.425,1.892,3.632,1.279,5.52c-0.085,0.262-0.202,0.533-0.431,0.686
				c-0.308,0.206-0.715,0.138-1.083,0.185c-1.248,0.159-2.137,1.673-3.382,1.49c-0.403-0.059-0.761-0.298-1.162-0.371
				c-0.891-0.163-1.631,0.641-1.935,1.494c-0.489,1.367,1.182,3.562,1.837,4.187c0,0,0.495,1.286,0.198,1.682
				c-0.297,0.396-0.267,0-0.48,1.187c-0.213,1.187,0.331,2.671-0.905,3.265c-1.237,0.594-1.83,0-2.82,0.594
				c-0.989,0.594-2.424,0-3.957,0s-2.869-0.495-3.809-0.94c-0.94-0.445-2.177-1.632-2.226-2.671
				c-0.049-1.039-0.693-1.484-1.039-2.919c-0.346-1.435-0.495-3.413-0.346-4.106c0.148-0.693-0.742-5.046,0.346-6.777
				c1.088-1.731,0.989-1.731,1.286-3.018S116.261,205.185,120.369,205.52z"/>
			<g>
				<path style="fill:#3E3047;" d="M129.077,318c0,0-1.88-4.551-7.618-10.389c0,0,5.332,12.014,8.206,20.138
					C129.348,322.999,129.077,318,129.077,318z"/>
			</g>
			<path style="fill:#87C2EC;" d="M109.696,434.946H143.5c0,0,1.461-2.921,0-3.443c-1.461-0.522-14.815-1.461-18.78-3.86
				c-3.965-2.4-4.069-3.234-7.199-1.878c-3.13,1.356-4.173-1.091-5.634-0.65c-1.461,0.441-1.356,1.484-1.461,2.945
				C110.322,429.52,109.278,430.877,109.696,434.946z"/>
			<path style="fill:#699EDC;" d="M109.612,432.835c-0.014,0.619,0,1.298,0.083,2.111H143.5c0,0,0.564-1.131,0.64-2.111H109.612z"/>
			<path style="fill:#64A1CC;" d="M136.729,259.165c0.585-0.186,1.133-0.409,1.665-0.644c-0.732-3.515-2.259-9.975-2.259-9.975
				C136.531,252.635,136.729,259.165,136.729,259.165z"/>
			<path style="fill:#64A1CC;" d="M106.124,254.68c-0.349,0.977-0.747,4.653-1.299,7.26c1.352-0.023,2.387-0.136,2.387-0.136
				s-0.198-3.76,0-6.332c0.198-2.572,0-4.155,0-4.155S106.618,253.295,106.124,254.68z"/>
		</g>
		<g>
			<rect x="235.709" y="418.447" style="fill:#414763;" width="23.481" height="16.499"/>
			<rect x="262.481" y="363.974" style="fill:#414763;" width="6.386" height="70.972"/>
			<rect x="231.356" y="363.974" style="fill:#545C80;" width="31.125" height="70.972"/>
			<rect x="235.182" y="367.799" style="fill:#373C54;" width="10.685" height="41.686"/>
			<rect x="248.242" y="367.799" style="fill:#9BA0BF;" width="11.609" height="3.958"/>
			<rect x="248.242" y="374.923" style="fill:#9BA0BF;" width="11.609" height="3.957"/>
			<rect x="248.242" y="382.047" style="fill:#9BA0BF;" width="11.609" height="3.957"/>
			<rect x="248.242" y="389.17" style="fill:#9BA0BF;" width="11.609" height="3.958"/>
			<g>
				<rect x="236.501" y="370.636" style="fill:#545C80;" width="8.047" height="0.791"/>
				<rect x="236.501" y="376.11" style="fill:#545C80;" width="8.047" height="0.791"/>
				<rect x="236.501" y="381.585" style="fill:#545C80;" width="8.047" height="0.792"/>
				<rect x="236.501" y="387.059" style="fill:#545C80;" width="8.047" height="0.791"/>
				<rect x="236.501" y="392.534" style="fill:#545C80;" width="8.047" height="0.791"/>
				<rect x="236.501" y="398.009" style="fill:#545C80;" width="8.047" height="0.791"/>
				<rect x="236.501" y="403.483" style="fill:#545C80;" width="8.047" height="0.791"/>
			</g>
			<rect x="247.45" y="424.652" style="fill:#373C54;" width="9.498" height="8.183"/>
		</g>
		<g>
			<rect x="267.71" y="431.582" style="fill:#878BA6;" width="41.686" height="3.364"/>
			<rect x="251.88" y="428.218" style="fill:#9BA0BF;" width="20.843" height="3.364"/>
		</g>
		<rect x="300.175" y="396.013" style="fill:#9BA0BF;" width="2.968" height="38.932"/>
		<rect x="297.13" y="396.013" style="fill:#545C80;" width="9.641" height="2.655"/>
		<g>
			<rect x="322.741" y="368.212" style="fill:#545C80;" width="29.267" height="66.734"/>
			<rect x="327.579" y="419.432" style="fill:#414763;" width="22.079" height="15.514"/>
			<rect x="352.008" y="368.212" style="fill:#414763;" width="6.004" height="66.734"/>
			<rect x="326.338" y="371.809" style="fill:#373C54;" width="10.047" height="39.197"/>
			<rect x="338.618" y="371.809" style="fill:#9BA0BF;" width="10.916" height="3.721"/>
			<rect x="338.618" y="378.507" style="fill:#9BA0BF;" width="10.916" height="3.721"/>
			<rect x="338.618" y="385.205" style="fill:#9BA0BF;" width="10.916" height="3.721"/>
			<rect x="338.618" y="391.904" style="fill:#9BA0BF;" width="10.916" height="3.721"/>
			<g>
				<rect x="327.579" y="374.476" style="fill:#545C80;" width="7.566" height="0.744"/>
				<rect x="327.579" y="379.623" style="fill:#545C80;" width="7.566" height="0.744"/>
				<rect x="327.579" y="384.771" style="fill:#545C80;" width="7.566" height="0.744"/>
				<rect x="327.579" y="389.919" style="fill:#545C80;" width="7.566" height="0.744"/>
				<rect x="327.579" y="395.066" style="fill:#545C80;" width="7.566" height="0.744"/>
				<rect x="327.579" y="400.214" style="fill:#545C80;" width="7.566" height="0.744"/>
				<rect x="327.579" y="405.362" style="fill:#545C80;" width="7.566" height="0.744"/>
			</g>
			<rect x="337.318" y="425.267" style="fill:#373C54;" width="8.931" height="7.694"/>
		</g>
		<g>
			<rect x="273.661" y="324.352" style="fill:#666F9B;" width="51.969" height="12.89"/>
			<rect x="325.629" y="324.352" style="fill:#545C80;" width="4.789" height="12.89"/>
			<g>
				<rect x="276.512" y="328.086" style="fill:#484F6E;" width="37.851" height="1.33"/>
				<rect x="276.512" y="332.178" style="fill:#FFFFFF;" width="37.851" height="1.33"/>
			</g>
			<circle style="fill:#FF6290;" cx="320.003" cy="330.797" r="2.046"/>
			<rect x="273.661" y="343.942" style="fill:#666F9B;" width="51.969" height="12.89"/>
			<rect x="325.629" y="343.942" style="fill:#545C80;" width="4.789" height="12.89"/>
			<g>
				<rect x="276.512" y="347.676" style="fill:#484F6E;" width="37.851" height="1.33"/>
				<rect x="276.512" y="351.768" style="fill:#FFFFFF;" width="37.851" height="1.33"/>
			</g>
			<circle style="fill:#FFD664;" cx="320.003" cy="350.387" r="2.046"/>
			<rect x="273.661" y="363.533" style="fill:#666F9B;" width="51.969" height="12.89"/>
			<rect x="325.629" y="363.533" style="fill:#545C80;" width="4.789" height="12.89"/>
			<g>
				<rect x="276.512" y="367.267" style="fill:#484F6E;" width="37.851" height="1.33"/>
				<rect x="276.512" y="371.359" style="fill:#FFFFFF;" width="37.851" height="1.33"/>
			</g>
			<path style="fill:#FF6290;" d="M322.049,369.978c0,1.13-0.916,2.046-2.046,2.046c-1.13,0-2.046-0.916-2.046-2.046
				c0-1.13,0.916-2.046,2.046-2.046C321.133,367.932,322.049,368.848,322.049,369.978z"/>
			<rect x="273.661" y="383.124" style="fill:#666F9B;" width="51.969" height="12.89"/>
			<rect x="325.629" y="383.124" style="fill:#545C80;" width="4.789" height="12.89"/>
			<g>
				<rect x="276.512" y="386.858" style="fill:#484F6E;" width="37.851" height="1.33"/>
				<rect x="276.512" y="390.949" style="fill:#FFFFFF;" width="37.851" height="1.33"/>
			</g>
			<circle style="fill:#FFD664;" cx="320.003" cy="389.568" r="2.046"/>
		</g>
		<g>
			<rect x="304.264" y="431.582" style="fill:#878BA6;" width="29.884" height="3.364"/>
			<rect x="323.765" y="428.218" style="fill:#9BA0BF;" width="20.843" height="3.364"/>
		</g>
		<g>
			<path style="fill:#71AAEC;" d="M345.806,130.412h-84.122c-3.527,0-6.386-2.859-6.386-6.386v-48.57
				c0-3.527,2.859-6.386,6.386-6.386h84.122c3.527,0,6.386,2.859,6.386,6.386v48.57
				C352.192,127.553,349.333,130.412,345.806,130.412z"/>
			<path style="fill:#87C2EC;" d="M344.868,124.905h-88.531c-2.309,0-4.181-1.872-4.181-4.181V67.744
				c0-2.309,1.872-4.181,4.181-4.181h88.531c2.309,0,4.181,1.872,4.181,4.181v52.979
				C349.05,123.033,347.178,124.905,344.868,124.905z"/>
			
				<text transform="matrix(1 0 0 1 269.7081 102.499)" style="fill:#FFFFFF; font-family:'Montserrat-ExtraBold'; font-size:28.3043px; letter-spacing:1;">NFT</text>
			<g>
				<path style="fill:#FFFFFF;" d="M268.065,116.825c-0.698,0-1.369-0.391-1.693-1.062l-8.429-17.414
					c-1.267-2.615-1.267-5.616,0-8.232l8.429-17.414c0.452-0.934,1.578-1.325,2.511-0.873c0.935,0.452,1.325,1.576,0.873,2.511
					l-8.429,17.414c-0.762,1.575-0.762,3.382,0,4.956l8.429,17.415c0.452,0.934,0.062,2.059-0.873,2.511
					C268.619,116.765,268.34,116.825,268.065,116.825z"/>
				<path style="fill:#FFFFFF;" d="M332.194,116.825c-0.275,0-0.554-0.061-0.818-0.188c-0.935-0.452-1.325-1.576-0.874-2.511
					l8.429-17.414c0.764-1.575,0.764-3.382,0.001-4.956l-8.43-17.415c-0.452-0.934-0.061-2.059,0.874-2.511
					c0.931-0.45,2.057-0.062,2.511,0.873l8.429,17.414c1.267,2.615,1.267,5.616-0.001,8.232l-8.427,17.413
					C333.562,116.434,332.892,116.825,332.194,116.825z"/>
			</g>
		</g>
		<g>
			<path style="fill:#545C80;" d="M244.676,168.768h-53.291c-0.346,0-0.627-0.28-0.627-0.627v-43.731
				c0-0.346,0.28-0.627,0.627-0.627c0.346,0,0.627,0.28,0.627,0.627v43.104h52.664c0.346,0,0.627,0.28,0.627,0.627
				C245.303,168.488,245.023,168.768,244.676,168.768z"/>
			<path style="fill:#545C80;" d="M230.4,194.558h-96.003c-0.346,0-0.627-0.28-0.627-0.627v-21.703c0-0.346,0.28-0.627,0.627-0.627
				c0.346,0,0.627,0.28,0.627,0.627v21.077H230.4c0.346,0,0.627,0.28,0.627,0.627C231.027,194.278,230.747,194.558,230.4,194.558z"
				/>
			<path style="fill:#545C80;" d="M412.963,168.768h-53.291c-0.346,0-0.627-0.28-0.627-0.627c0-0.346,0.28-0.627,0.627-0.627h52.665
				v-43.104c0-0.346,0.28-0.627,0.627-0.627c0.346,0,0.627,0.28,0.627,0.627v43.731C413.59,168.488,413.309,168.768,412.963,168.768
				z"/>
			<path style="fill:#545C80;" d="M469.952,194.558h-96.004c-0.346,0-0.627-0.28-0.627-0.627c0-0.346,0.28-0.627,0.627-0.627h95.377
				v-21.077c0-0.346,0.28-0.627,0.627-0.627c0.346,0,0.627,0.28,0.627,0.627v21.703
				C470.578,194.278,470.298,194.558,469.952,194.558z"/>
		</g>
		<g>
			<g>
				<path style="fill:#FFFFFF;" d="M209.173,116.319h-35.575c-2.436,0-4.412-1.975-4.412-4.411V94.173
					c0-2.436,1.975-4.411,4.412-4.411h35.575c2.436,0,4.411,1.975,4.411,4.411v17.734
					C213.585,114.344,211.61,116.319,209.173,116.319z"/>
				<path style="fill:#9BA0BF;" d="M170.364,114.888c0.806,0.874,1.951,1.431,3.234,1.431h27.812l-13.777-15.708
					c-1.491-1.699-4.149-1.658-5.586,0.087L170.364,114.888z"/>
				<path style="fill:#6E7087;" d="M197.169,111.484l4.241,4.835h7.763c2.436,0,4.411-1.975,4.411-4.411v-3.854l-5.097-3.76
					c-1.483-1.094-3.547-0.917-4.822,0.413L197.169,111.484z"/>
			</g>
			<g>
				<path style="fill:#FFFFFF;" d="M152.915,163.491h-37.035c-2.033,0-3.681-1.648-3.681-3.681v-23.439
					c0-2.033,1.648-3.681,3.681-3.681h37.035c2.033,0,3.681,1.648,3.681,3.681v23.439
					C156.596,161.843,154.948,163.491,152.915,163.491z"/>
				<path style="fill:#666F9B;" d="M126.66,141.48c-0.339,0.046-0.592,0.336-0.592,0.678v1.448v11.883
					c-0.725-0.372-1.627-0.604-2.622-0.604c-2.35,0-4.254,1.24-4.254,2.77c0,1.53,1.905,2.77,4.254,2.77s4.254-1.24,4.254-2.77
					v-13.915c0-0.204,0.151-0.377,0.354-0.405l14.295-1.95c0.245-0.033,0.464,0.157,0.464,0.405v10.203
					c-0.724-0.372-1.627-0.604-2.622-0.604c-2.35,0-4.254,1.24-4.254,2.77s1.905,2.77,4.254,2.77c2.35,0,4.254-1.24,4.254-2.77
					v-13.06v-1.261c0-0.415-0.366-0.734-0.777-0.678L126.66,141.48z"/>
			</g>
			<g>
				<path style="fill:#FFFFFF;" d="M395.175,116.319h35.575c2.436,0,4.411-1.975,4.411-4.411V94.173
					c0-2.436-1.975-4.411-4.411-4.411h-35.575c-2.436,0-4.411,1.975-4.411,4.411v17.734
					C390.764,114.344,392.739,116.319,395.175,116.319z"/>
				<g>
					<path style="fill:#9BA0BF;" d="M426.882,93.674h-19.59c-0.492,0-0.89-0.399-0.89-0.89l0,0c0-0.492,0.399-0.89,0.89-0.89h19.59
						c0.492,0,0.89,0.399,0.89,0.89l0,0C427.772,93.275,427.374,93.674,426.882,93.674z"/>
					<path style="fill:#8082A6;" d="M426.882,98.522h-29.286c-0.492,0-0.891-0.399-0.891-0.891l0,0c0-0.492,0.399-0.89,0.891-0.89
						h29.286c0.492,0,0.89,0.399,0.89,0.89l0,0C427.772,98.123,427.374,98.522,426.882,98.522z"/>
					<path style="fill:#9BA0BF;" d="M426.882,103.37h-29.286c-0.492,0-0.891-0.399-0.891-0.891l0,0c0-0.492,0.399-0.89,0.891-0.89
						h29.286c0.492,0,0.89,0.399,0.89,0.89l0,0C427.772,102.971,427.374,103.37,426.882,103.37z"/>
					<path style="fill:#8082A6;" d="M426.882,108.218h-29.286c-0.492,0-0.891-0.399-0.891-0.89l0,0c0-0.492,0.399-0.89,0.891-0.89
						h29.286c0.492,0,0.89,0.399,0.89,0.89l0,0C427.772,107.82,427.374,108.218,426.882,108.218z"/>
					<path style="fill:#9BA0BF;" d="M421.794,113.066h-24.198c-0.492,0-0.891-0.399-0.891-0.89l0,0c0-0.492,0.399-0.89,0.891-0.89
						h24.198c0.492,0,0.891,0.399,0.891,0.89l0,0C422.685,112.668,422.286,113.066,421.794,113.066z"/>
				</g>
			</g>
			<g>
				<path style="fill:#FFFFFF;" d="M451.434,163.491h37.035c2.033,0,3.681-1.648,3.681-3.681v-23.439
					c0-2.033-1.648-3.681-3.681-3.681h-37.035c-2.033,0-3.681,1.648-3.681,3.681v23.439
					C447.752,161.843,449.4,163.491,451.434,163.491z"/>
				<circle style="fill:#8B8FAB;" cx="469.951" cy="148.09" r="12.402"/>
				<polygon style="fill:#C7CEF5;" points="477.837,148.09 465.935,155.775 465.935,140.406 				"/>
			</g>
		</g>
		<g>
			<g>
				<polygon style="fill:#878AA6;" points="368.219,143.311 368.219,125.466 374.051,127.929 374.051,129.225 372.755,130.954 
					374.051,131.559 374.051,132.596 372.668,133.87 374.051,134.67 372.928,136.571 372.928,136.571 372.928,145.817 				"/>
				<polygon style="fill:#74778F;" points="370.345,144.521 369.461,144.521 369.461,127.843 370.345,128.275 				"/>
				<path style="fill:#9BA0BF;" d="M377.225,148.842c0,3.556-2.882,6.438-6.438,6.438s-6.438-2.882-6.438-6.438
					c0-3.555,2.882-6.438,6.438-6.438S377.225,145.286,377.225,148.842z"/>
				<path style="fill:#E1E6F0;" d="M373.812,148.842c0,1.671-1.354,3.025-3.025,3.025s-3.025-1.354-3.025-3.025
					c0-1.67,1.354-3.024,3.025-3.024S373.812,147.171,373.812,148.842z"/>
			</g>
			<g>
				<path style="fill:#9BA0BF;" d="M235.753,152.823h-9.452c-1.697,0-3.073-1.376-3.073-3.073v-10.822h15.599v10.822
					C238.826,151.447,237.451,152.823,235.753,152.823z"/>
				<path style="fill:#E1E6F0;" d="M234.254,145.875c0,1.782-1.445,3.227-3.227,3.227c-1.782,0-3.227-1.445-3.227-3.227
					c0-1.783,1.445-3.227,3.227-3.227C232.809,142.647,234.254,144.092,234.254,145.875z"/>
				<path style="fill:#666F9B;" d="M235.745,134.3v1.668h1.614v-1.796c0-3.415-2.768-6.183-6.183-6.183h-0.296
					c-3.415,0-6.183,2.768-6.183,6.183v4.754h1.614V134.3c0-2.606,2.112-4.718,4.718-4.718
					C233.632,129.582,235.745,131.695,235.745,134.3z"/>
			</g>
		</g>
		<path style="fill:#E4E6F5;" d="M244.164,252.906c-0.93,0-1.852-0.152-2.745-0.458c-5.069-1.74-7.527-8.011-5.479-13.981
			c0.979-2.852,2.831-5.223,5.218-6.677c2.462-1.498,5.193-1.852,7.69-0.996c5.069,1.74,7.527,8.011,5.479,13.981l0,0
			c-0.979,2.852-2.831,5.223-5.218,6.677C247.528,252.415,245.835,252.906,244.164,252.906z M246.112,232.846
			c-1.22,0-2.469,0.366-3.649,1.084c-1.888,1.15-3.362,3.051-4.151,5.35c-1.6,4.663,0.16,9.507,3.922,10.797
			c1.779,0.612,3.758,0.34,5.572-0.765c1.888-1.15,3.362-3.051,4.151-5.349c1.6-4.663-0.16-9.507-3.922-10.797
			C247.414,232.951,246.768,232.846,246.112,232.846z"/>
		<path style="fill:#FFD664;" d="M244.164,252.906c-0.93,0-1.852-0.152-2.745-0.458c-5.069-1.74-7.527-8.011-5.479-13.981
			c0.979-2.852,2.831-5.223,5.218-6.677c2.462-1.498,5.193-1.852,7.69-0.996c1.269,0.436,2.396,1.157,3.35,2.142l-1.8,1.743
			c-0.676-0.698-1.472-1.207-2.364-1.513c-1.779-0.613-3.758-0.339-5.572,0.765c-1.888,1.15-3.362,3.051-4.151,5.35
			c-1.6,4.663,0.16,9.507,3.922,10.797c1.779,0.612,3.758,0.34,5.572-0.765c1.888-1.15,3.362-3.051,4.151-5.349
			c0.3-0.879,0.489-1.781,0.559-2.683l2.499,0.196c-0.087,1.111-0.318,2.221-0.688,3.299c-0.979,2.852-2.831,5.223-5.218,6.677
			C247.528,252.415,245.835,252.906,244.164,252.906z"/>
		<g>
			<g>
				
					<ellipse transform="matrix(0.6643 -0.7474 0.7474 0.6643 -77.181 216.0062)" style="fill:#FFFFFF;" cx="201.898" cy="193.932" rx="12.077" ry="12.077"/>
				
					<ellipse transform="matrix(0.7071 -0.7071 0.7071 0.7071 -77.996 199.5645)" style="fill:#B4B7D1;" cx="201.898" cy="193.932" rx="9.381" ry="9.381"/>
				<path style="fill:#FFFFFF;" d="M200.957,198.524c-0.154,0-0.31-0.045-0.446-0.14l-3.561-2.473
					c-0.356-0.247-0.444-0.735-0.196-1.09c0.247-0.355,0.736-0.443,1.09-0.196l2.927,2.032l4.992-6.989
					c0.251-0.353,0.739-0.435,1.093-0.182c0.352,0.251,0.433,0.741,0.182,1.093l-5.442,7.618
					C201.442,198.41,201.202,198.524,200.957,198.524z"/>
			</g>
			<g>
				
					<ellipse transform="matrix(0.2286 -0.9735 0.9735 0.2286 121.6647 541.4016)" style="fill:#FFFFFF;" cx="402.451" cy="193.932" rx="12.077" ry="12.077"/>
				<path style="fill:#B4B7D1;" d="M411.818,194.445c-0.283,5.173-4.707,9.137-9.88,8.854c-5.173-0.283-9.137-4.707-8.854-9.88
					c0.283-5.173,4.707-9.137,9.88-8.854C408.137,184.848,412.101,189.272,411.818,194.445z"/>
				<g>
					<path style="fill:#FFFFFF;" d="M406.408,198.672c-0.201,0-0.401-0.076-0.554-0.229l-7.915-7.915
						c-0.305-0.306-0.305-0.802,0-1.108c0.306-0.306,0.803-0.306,1.109,0l7.915,7.915c0.305,0.306,0.305,0.802,0,1.108
						C406.81,198.596,406.609,198.672,406.408,198.672z"/>
					<path style="fill:#FFFFFF;" d="M398.494,198.672c-0.201,0-0.401-0.076-0.554-0.229c-0.305-0.306-0.305-0.802,0-1.108
						l7.915-7.915c0.306-0.306,0.803-0.306,1.109,0c0.305,0.306,0.305,0.802,0,1.108l-7.915,7.915
						C398.895,198.596,398.694,198.672,398.494,198.672z"/>
				</g>
			</g>
		</g>
	</g>
</g>
</svg>
